<?xml version="1.0" standalone="no"?>
<!DOCTYPE svg PUBLIC "-//W3C//DTD SVG 20010904//EN"
 "http://www.w3.org/TR/2001/REC-SVG-20010904/DTD/svg10.dtd">
<svg version="1.0" xmlns="http://www.w3.org/2000/svg"
 width="900.000000pt" height="900.000000pt" viewBox="0 0 900.000000 900.000000"
 preserveAspectRatio="xMidYMid meet">
<metadata>
Created by potrace 1.11, written by Peter Selinger 2001-2013
</metadata>
<g transform="translate(0.000000,900.000000) scale(0.100000,-0.100000)"
fill="#000000" stroke="none">
<path d="M4030 7629 c-116 -7 -177 -15 -285 -34 -11 -2 -38 -6 -60 -10 -130
-20 -300 -57 -303 -65 -2 -6 -12 -10 -22 -10 -27 0 -219 -49 -255 -65 -16 -8
-66 -26 -110 -41 -44 -15 -84 -30 -90 -34 -5 -4 -54 -24 -107 -45 -54 -21 -98
-42 -98 -46 0 -5 -5 -9 -10 -9 -13 0 -143 -60 -150 -69 -3 -3 -27 -17 -55 -31
-27 -13 -63 -34 -80 -45 -16 -12 -52 -34 -80 -49 -44 -24 -131 -80 -160 -103
-37 -29 -85 -63 -90 -63 -6 0 -72 -52 -199 -158 -168 -140 -526 -522 -606
-646 -8 -13 -33 -49 -55 -80 -22 -32 -44 -65 -50 -74 -5 -10 -19 -31 -31 -47
-11 -17 -24 -37 -28 -45 -4 -8 -24 -44 -46 -80 -63 -107 -210 -407 -245 -500
-10 -25 -25 -65 -35 -90 -36 -87 -112 -345 -125 -420 -3 -19 -15 -71 -26 -114
-11 -44 -22 -96 -25 -115 -2 -20 -9 -63 -14 -96 -51 -335 -52 -865 -1 -981 43
-95 148 -164 254 -164 47 0 147 28 147 41 0 5 5 9 12 9 14 0 68 50 68 62 0 5
12 27 27 49 l27 41 1 347 c1 207 6 380 13 431 7 47 14 103 17 125 3 22 10 58
15 79 5 22 7 44 4 48 -3 4 -1 8 5 8 5 0 12 19 16 43 12 68 13 74 35 155 11 42
25 86 30 97 5 11 21 58 35 105 15 47 40 113 56 147 16 34 29 67 29 73 0 5 37
83 83 173 79 154 227 391 286 460 16 18 30 37 32 43 7 20 160 193 259 293 96
98 302 281 315 281 7 0 58 38 87 66 17 17 48 36 78 50 8 4 24 15 35 25 11 9
43 29 70 45 28 15 52 30 55 33 6 7 35 24 93 53 23 12 53 29 67 39 14 9 28 17
32 18 4 1 27 10 50 20 24 10 53 21 66 25 12 4 22 12 22 17 0 5 3 8 8 7 4 0 14
2 22 5 116 49 332 123 390 133 19 4 40 10 45 14 13 11 175 45 305 65 58 9 134
21 170 27 36 6 214 11 400 12 305 2 338 3 370 20 19 10 37 22 40 25 3 3 14 11
25 17 32 17 83 103 97 162 31 140 -83 304 -231 332 -75 14 -464 20 -621 9z"/>
<path d="M4088 6565 c-3 -3 -60 -12 -127 -20 -139 -17 -319 -51 -359 -67 -15
-6 -40 -14 -57 -18 -98 -26 -181 -52 -190 -60 -6 -5 -47 -22 -90 -39 -94 -34
-374 -177 -395 -200 -10 -12 -69 -51 -76 -51 -4 0 -29 -18 -55 -40 -26 -22
-50 -40 -53 -40 -6 0 -96 -71 -149 -119 -49 -43 -240 -234 -267 -266 -14 -17
-44 -53 -67 -81 -24 -29 -43 -55 -43 -59 0 -4 -20 -31 -45 -59 -25 -29 -45
-56 -45 -59 0 -3 -13 -26 -30 -50 -16 -25 -30 -50 -30 -56 0 -6 -3 -11 -8 -11
-7 0 -17 -16 -47 -79 -9 -18 -26 -50 -39 -70 -12 -20 -35 -67 -51 -106 -16
-38 -33 -73 -38 -76 -5 -3 -8 -9 -8 -13 1 -3 -5 -21 -12 -39 -33 -77 -98 -292
-126 -412 -49 -215 -56 -286 -56 -590 1 -320 1 -322 85 -405 75 -76 154 -100
258 -80 64 13 86 25 136 76 47 47 53 57 71 110 14 41 16 72 10 189 -12 239 16
469 88 725 13 47 31 99 40 117 10 18 17 37 17 43 0 16 101 231 124 265 12 17
32 50 45 75 14 25 34 57 45 72 12 15 44 58 71 95 96 131 358 383 464 448 9 6
35 24 57 42 23 18 44 30 46 27 3 -2 11 2 18 11 7 8 16 15 21 15 5 0 38 18 74
39 36 22 75 43 87 47 13 4 55 21 93 39 39 18 104 42 145 54 41 12 83 26 92 31
22 12 187 46 303 61 50 7 194 13 320 14 239 2 265 6 332 48 52 33 77 66 103
133 36 98 22 188 -42 280 -33 46 -91 79 -176 100 -55 13 -452 21 -464 9z"/>
<path d="M5500 5699 c-651 -50 -1239 -247 -1720 -577 -159 -109 -278 -209
-436 -367 -272 -270 -450 -520 -614 -856 -118 -244 -217 -536 -270 -794 -12
-55 -33 -147 -48 -205 -24 -95 -27 -122 -26 -275 1 -151 4 -181 27 -270 63
-235 207 -453 396 -596 94 -71 267 -155 386 -186 87 -23 121 -26 265 -27 122
-1 186 3 245 16 44 10 130 27 190 39 523 99 988 301 1385 600 619 467 1035
1129 1204 1919 60 279 93 652 82 938 l-6 172 60 0 c85 0 237 -18 355 -41 203
-41 446 -140 618 -252 148 -96 347 -276 347 -314 0 -7 11 -20 25 -29 30 -20
133 -171 180 -263 45 -91 95 -235 95 -277 0 -19 7 -46 17 -60 14 -21 16 -56
17 -215 1 -166 -1 -192 -15 -200 -9 -5 -20 -25 -23 -44 -4 -19 -11 -35 -16
-35 -6 0 -10 -6 -10 -12 0 -7 -10 -25 -23 -40 -12 -15 -29 -36 -38 -48 -46
-59 -205 -209 -233 -219 -6 -2 -18 -12 -26 -21 -15 -17 -106 -80 -163 -114
-18 -10 -34 -21 -37 -25 -7 -9 -67 -41 -77 -41 -4 0 8 10 27 21 19 12 57 40
85 63 27 22 58 48 69 56 34 26 200 193 234 235 18 22 37 45 42 52 6 7 10 17
10 23 0 5 4 10 9 10 5 0 15 15 22 33 7 17 19 38 26 45 7 7 16 25 19 40 4 15
11 32 16 39 6 7 12 48 15 92 6 76 5 79 -18 87 -13 4 -127 8 -254 8 -191 0
-235 -3 -260 -16 -16 -9 -60 -19 -98 -23 -37 -4 -70 -11 -73 -16 -3 -5 -14 -9
-25 -9 -10 0 -28 -4 -39 -10 -11 -5 -28 -14 -39 -19 -10 -5 -35 -13 -54 -16
-20 -4 -41 -13 -48 -21 -6 -7 -26 -16 -45 -20 -19 -3 -34 -10 -34 -15 0 -5 -7
-9 -15 -9 -8 0 -15 -3 -15 -8 0 -4 -17 -15 -39 -24 -21 -9 -45 -23 -53 -31 -8
-8 -33 -24 -56 -36 -23 -12 -42 -26 -42 -31 0 -5 -8 -11 -18 -14 -10 -4 -35
-22 -56 -41 -21 -19 -42 -35 -47 -35 -5 0 -9 -7 -9 -15 0 -8 -5 -15 -10 -15
-16 0 -170 -162 -217 -227 -10 -14 -25 -33 -33 -42 -8 -9 -30 -40 -49 -70 -19
-29 -39 -58 -46 -64 -6 -7 -18 -27 -26 -44 -7 -18 -17 -33 -20 -33 -4 0 -10
-12 -13 -26 -4 -15 -14 -33 -22 -41 -8 -9 -18 -28 -21 -44 -3 -16 -9 -29 -14
-29 -5 0 -9 -9 -9 -20 0 -11 -4 -20 -10 -20 -5 0 -10 -9 -10 -19 0 -11 -4 -23
-10 -26 -5 -3 -10 -14 -10 -23 0 -10 -9 -35 -19 -55 -11 -21 -22 -56 -26 -78
-4 -21 -11 -41 -16 -45 -5 -3 -9 -18 -9 -33 0 -15 -4 -31 -9 -36 -12 -14 -31
-98 -31 -137 0 -19 -4 -38 -9 -43 -29 -31 -29 -545 0 -545 5 0 9 -14 9 -31 0
-41 20 -119 31 -119 5 0 9 -10 9 -23 0 -13 4 -27 10 -33 5 -5 13 -27 17 -48
16 -77 51 -54 60 40 3 38 12 72 18 76 7 4 16 24 20 44 3 20 15 46 26 57 10 11
19 27 19 34 0 7 4 13 9 13 5 0 13 9 16 20 4 11 11 18 16 15 5 -4 9 1 9 9 0 9
4 16 10 16 5 0 20 11 34 25 14 14 29 25 35 25 5 0 11 3 13 8 5 11 83 62 96 62
7 0 12 4 12 8 0 5 16 14 35 22 19 8 35 17 35 22 0 4 6 8 13 8 18 0 67 24 67
33 0 4 6 7 14 7 7 0 27 7 42 15 16 8 36 15 45 15 9 0 22 7 29 15 6 8 15 14 18
13 8 -1 40 10 64 23 10 5 25 9 33 9 8 0 15 5 15 10 0 6 11 10 25 10 14 0 25 4
25 9 0 5 18 12 39 16 22 4 42 12 45 20 2 7 23 16 45 20 23 4 41 10 41 15 0 4
15 11 34 14 19 4 39 13 46 21 7 8 21 15 31 15 10 0 20 4 24 9 3 5 18 12 34 16
16 3 32 12 34 20 3 7 19 16 36 20 17 4 33 11 37 16 3 5 35 23 70 40 35 17 64
34 64 38 0 4 18 15 40 25 22 10 40 22 40 27 0 5 5 9 10 9 12 0 17 4 70 50 19
16 43 33 52 36 10 3 18 12 18 20 0 8 4 14 9 14 19 0 192 189 217 238 11 20 27
44 37 54 9 10 17 25 17 33 0 8 4 15 8 15 5 0 14 16 22 35 8 19 17 35 22 35 4
0 8 8 8 18 0 9 9 31 19 48 10 17 22 49 26 72 4 23 11 44 16 48 5 3 9 16 9 30
0 14 7 35 15 47 8 13 17 55 21 95 4 40 10 72 15 72 17 0 36 487 20 503 -6 6
-11 49 -11 98 0 48 -4 91 -10 94 -5 3 -10 23 -10 44 0 51 -21 151 -31 151 -5
0 -9 13 -9 29 0 17 -4 32 -9 35 -5 4 -12 28 -16 55 -4 27 -13 52 -20 55 -8 3
-17 21 -21 40 -3 20 -10 36 -15 36 -5 0 -9 9 -9 20 0 11 -4 20 -10 20 -5 0
-10 7 -10 15 0 8 -3 15 -8 15 -4 0 -12 8 -17 18 -64 116 -204 318 -284 409
-291 332 -736 571 -1161 623 -52 6 -122 15 -155 20 -313 48 -840 71 -1125 49z"/>
</g>
</svg>
